# xmcd CD database file
#
# Track frame offsets:
#	150
#	20742
#	48067
#	67924
#	118665
#	130135
#	153157
#	174972
#	193993
#	233968
#	251908
#
# Disc length: 3722 seconds
#
# Revision: 0
# Processed by: cddbd v1.5.2PL0 Copyright (c) Steve Scherf et al.
# Submitted via: CDex 1.70beta1
#
DISCID=910e880b
DTITLE=Mirabai - This Love
DYEAR=1900
DGENRE=Jazz
TTITLE0=Don't Go Back To Sleep
TTITLE1=The Dark One
TTITLE2=I Went Everywhere
TTITLE3=Your Spring
TTITLE4=The Clear Bead
TTITLE5=This Love
TTITLE6=Walk To The Well
TTITLE7=Turning Night Of Stars
TTITLE8=Melting Snow
TTITLE9=This We Are Now
TTITLE10=Entering The River
EXTD=
EXTT0=
EXTT1=
EXTT2=
EXTT3=
EXTT4=
EXTT5=
EXTT6=
EXTT7=
EXTT8=
EXTT9=
EXTT10=
PLAYORDER=
